<svg width="121" height="130" viewBox="0 0 121 130" fill="none" xmlns="http://www.w3.org/2000/svg">
<path d="M60.2618 127.641C77.5341 127.641 91.5362 113.639 91.5362 96.3662C91.5362 79.0939 77.5341 65.0919 60.2618 65.0919C42.9894 65.0919 28.9874 79.0939 28.9874 96.3662C28.9874 113.639 42.9894 127.641 60.2618 127.641Z" stroke="white" stroke-width="4" stroke-miterlimit="10"/>
<path d="M60.2618 65.1893C77.5341 65.1893 91.5362 51.1873 91.5362 33.915C91.5362 16.6426 77.5341 2.64062 60.2618 2.64062C42.9894 2.64062 28.9874 16.6426 28.9874 33.915C28.9874 51.1873 42.9894 65.1893 60.2618 65.1893Z" stroke="white" stroke-width="4" stroke-miterlimit="10"/>
<path d="M87.3468 80.7778C104.619 80.7778 118.621 66.7758 118.621 49.5035C118.621 32.2311 104.619 18.2291 87.3468 18.2291C70.0745 18.2291 56.0725 32.2311 56.0725 49.5035C56.0725 66.7758 70.0745 80.7778 87.3468 80.7778Z" stroke="white" stroke-width="4" stroke-miterlimit="10"/>
<path d="M33.2743 112.052C50.5467 112.052 64.5487 98.0501 64.5487 80.7778C64.5487 63.5054 50.5467 49.5034 33.2743 49.5034C16.002 49.5034 2 63.5054 2 80.7778C2 98.0501 16.002 112.052 33.2743 112.052Z" stroke="white" stroke-width="4" stroke-miterlimit="10"/>
<path d="M33.2743 80.7778C50.5467 80.7778 64.5487 66.7758 64.5487 49.5035C64.5487 32.2311 50.5467 18.2291 33.2743 18.2291C16.002 18.2291 2 32.2311 2 49.5035C2 66.7758 16.002 80.7778 33.2743 80.7778Z" stroke="white" stroke-width="4" stroke-miterlimit="10"/>
<path d="M87.3468 112.052C104.619 112.052 118.621 98.0501 118.621 80.7778C118.621 63.5054 104.619 49.5034 87.3468 49.5034C70.0745 49.5034 56.0725 63.5054 56.0725 80.7778C56.0725 98.0501 70.0745 112.052 87.3468 112.052Z" stroke="white" stroke-width="4" stroke-miterlimit="10"/>
</svg>
