<svg width="125" height="124" viewBox="0 0 125 124" fill="none" xmlns="http://www.w3.org/2000/svg">
<path d="M52.3508 40.9674H33.4382C31.1367 40.9674 29.2354 39.0662 29.2354 36.7647C29.2354 34.4631 31.1367 32.5619 33.4382 32.5619H52.3508C54.6523 32.5619 56.5536 34.4631 56.5536 36.7647C56.5536 39.0662 54.6523 40.9674 52.3508 40.9674Z" fill="white"/>
<path d="M19.7291 60.1802L29.8358 44.1696C31.0366 42.1682 33.6383 41.5678 35.6396 42.8687C37.641 44.0695 38.2414 46.6712 36.9405 48.6726L26.8338 64.6832C25.633 66.6845 23.0313 67.2849 21.0299 65.984C19.1287 64.7832 18.5283 62.1815 19.7291 60.1802Z" fill="white"/>
<path d="M6.32025 64.6832L8.72184 45.8707C9.02204 43.5692 11.1234 41.9681 13.425 42.2683C15.7265 42.5685 17.3275 44.6699 17.0273 46.9714L14.6257 65.7839C14.3255 68.0854 12.2242 69.6865 9.92265 69.3863C7.62112 69.0861 6.02005 66.9847 6.32025 64.6832Z" fill="white"/>
<path d="M23.4316 80.8939L4.61905 82.5951C2.31753 82.7952 0.216128 81.0941 0.0159948 78.7925C-0.184138 76.491 1.51701 74.3896 3.81854 74.1895L22.631 72.4883C24.9325 72.2882 27.0339 73.9894 27.2341 76.2909C27.4342 78.5924 25.7331 80.6938 23.4316 80.8939Z" fill="white"/>
<path d="M16.6271 87.3982L29.6357 101.107C31.2368 102.808 31.1367 105.51 29.4356 107.011C27.7345 108.612 25.0326 108.512 23.5316 106.811L10.523 93.102C8.92195 91.4009 9.02203 88.6991 10.7232 87.1981C12.4243 85.597 15.026 85.6971 16.6271 87.3982Z" fill="white"/>
<path d="M43.1447 69.6865L37.641 87.7985C36.9406 90 34.639 91.3008 32.3375 90.6004C30.1361 89.8999 28.8352 87.5984 29.5356 85.2969L35.0393 67.1848C35.7398 64.9834 38.0413 63.6825 40.3428 64.383C42.6444 65.0834 43.8451 67.485 43.1447 69.6865Z" fill="white"/>
<path d="M46.3468 96.004L38.3415 113.215C37.3408 115.317 34.8391 116.217 32.7377 115.217C30.6363 114.216 29.7357 111.714 30.7364 109.613L38.7417 92.4016C39.7424 90.3002 42.244 89.3996 44.3454 90.4002C46.4468 91.4009 47.3474 93.9026 46.3468 96.004Z" fill="white"/>
<path d="M50.4494 99.0059L69.1618 101.708C71.4634 102.008 73.0644 104.209 72.7642 106.511C72.464 108.812 70.2626 110.413 67.9611 110.113L49.2486 107.411C46.9471 107.111 45.346 104.91 45.6462 102.608C46.0465 100.207 48.1479 98.6057 50.4494 99.0059Z" fill="white"/>
<path d="M47.9479 115.317L66.4602 111.214C68.7617 110.714 70.9632 112.115 71.4635 114.416C71.9638 116.718 70.5629 118.919 68.2613 119.419L49.7491 123.522C47.4475 124.023 45.2461 122.622 44.7457 120.32C44.2454 118.019 45.6464 115.817 47.9479 115.317Z" fill="white"/>
<path d="M65.1592 73.8893L81.8703 82.6951C83.9717 83.7959 84.6722 86.2975 83.6715 88.3989C82.6708 90.5003 80.0691 91.2008 77.9677 90.2001L61.2566 81.3942C59.1553 80.2935 58.4548 77.7919 59.4555 75.6905C60.5562 73.5891 63.0578 72.7885 65.1592 73.8893Z" fill="white"/>
<path d="M94.1784 80.4937L99.9823 98.5056C100.683 100.707 99.482 103.109 97.2805 103.809C95.079 104.51 92.6775 103.309 91.977 101.107L86.1731 83.0954C85.4727 80.8939 86.6735 78.4924 88.8749 77.7919C91.0764 77.0914 93.3779 78.1921 94.1784 80.4937Z" fill="white"/>
<path d="M81.6702 94.4029L93.378 109.313C94.7789 111.114 94.4787 113.816 92.6775 115.217C90.8763 116.618 88.1745 116.317 86.7736 114.516L74.9658 99.6063C73.5649 97.8051 73.865 95.1034 75.6662 93.7024C77.5675 92.3015 80.1692 92.6017 81.6702 94.4029Z" fill="white"/>
<path d="M85.5728 26.6579L104.185 29.9601C106.487 30.3604 107.988 32.5618 107.587 34.8634C107.187 37.1649 104.986 38.6659 102.684 38.2656L84.0718 34.9634C81.7703 34.5632 80.2693 32.3617 80.6695 30.0602C81.1699 27.7587 83.3713 26.2577 85.5728 26.6579Z" fill="white"/>
<path d="M85.1725 3.64268L98.8815 16.6513C100.583 18.2524 100.683 20.9542 99.0817 22.5552C97.4806 24.2563 94.7788 24.3564 93.1778 22.7554L79.4687 9.74674C77.7676 8.14568 77.6675 5.44386 79.2686 3.8428C80.7695 2.14167 83.4713 2.04162 85.1725 3.64268Z" fill="white"/>
<path d="M96.0797 47.0715L112.591 37.7653C114.592 36.6646 117.194 37.365 118.294 39.3664C119.395 41.3677 118.695 43.9694 116.693 45.0702L100.182 54.3763C98.1812 55.477 95.5794 54.7766 94.4787 52.7753C93.378 50.7739 94.0784 48.1722 96.0797 47.0715Z" fill="white"/>
<path d="M95.8797 75.5904L102.184 57.7786C102.984 55.5771 105.386 54.4764 107.587 55.1769C109.789 55.9774 110.89 58.379 110.189 60.5804L103.885 78.3923C103.084 80.5937 100.683 81.6944 98.4814 80.994C96.28 80.2935 95.1792 77.7919 95.8797 75.5904Z" fill="white"/>
<path d="M104.385 99.6063L106.086 80.7939C106.287 78.4924 108.388 76.7912 110.689 76.9913C112.991 77.1915 114.692 79.2929 114.492 81.5944L112.791 100.407C112.591 102.708 110.489 104.41 108.188 104.209C105.886 104.009 104.185 102.008 104.385 99.6063Z" fill="white"/>
<path d="M116.693 73.3889L112.591 54.8767C112.09 52.5751 113.491 50.3737 115.793 49.8733C118.094 49.373 120.296 50.774 120.796 53.0755L124.899 71.5878C125.399 73.8893 123.998 76.0907 121.697 76.5911C119.495 77.0914 117.194 75.6905 116.693 73.3889Z" fill="white"/>
<path d="M42.5442 5.94419L44.6456 24.7567C44.9458 27.0582 43.2447 29.1596 40.9432 29.3597C38.6417 29.6599 36.5403 27.9588 36.3401 25.6573L34.2387 6.84478C33.9385 4.54326 35.6397 2.44189 37.9412 2.24176C40.2427 1.94156 42.3441 3.64267 42.5442 5.94419Z" fill="white"/>
<path d="M8.72177 31.261L26.0332 23.5559C28.1346 22.6553 30.6363 23.5559 31.637 25.6573C32.5376 27.7587 31.637 30.2604 29.5356 31.261L12.2241 38.9661C10.1227 39.8667 7.62103 38.9661 6.62037 36.8647C5.6197 34.7633 6.62037 32.1616 8.72177 31.261Z" fill="white"/>
<path d="M57.3541 62.2816L72.1639 50.5738C73.9651 49.1729 76.6669 49.4731 78.0678 51.2743C79.4687 53.0755 79.1685 55.7773 77.3673 57.1782L62.5575 68.8859C60.7563 70.2869 58.0545 69.9867 56.6536 68.1855C55.2527 66.3843 55.5529 63.6825 57.3541 62.2816Z" fill="white"/>
<path d="M80.5695 45.8707L62.3574 40.7673C60.156 40.1669 58.8551 37.8654 59.4555 35.5639C60.0559 33.3624 62.3574 32.0615 64.659 32.6619L82.871 37.7653C85.0725 38.3657 86.3734 40.6672 85.773 42.9688C85.1726 45.1702 82.771 46.4711 80.5695 45.8707Z" fill="white"/>
<path d="M91.7769 50.3737L91.0764 69.2863C90.9764 71.5878 89.0751 73.389 86.6735 73.2889C84.372 73.1888 82.5708 71.2876 82.6709 68.886L83.3714 49.9734C83.4714 47.6719 85.3727 45.8707 87.7743 45.9708C89.9757 46.1709 91.7769 48.0722 91.7769 50.3737Z" fill="white"/>
<path d="M56.5535 74.1895L55.8531 93.102C55.753 95.4035 53.8518 97.2047 51.4502 97.1047C49.0486 97.0046 47.3475 95.1034 47.4475 92.7018L48.148 73.7892C48.248 71.4877 50.1493 69.6865 52.5509 69.7866C54.7523 69.8866 56.6536 71.7879 56.5535 74.1895Z" fill="white"/>
<path d="M52.0505 0.340466L69.6622 7.34511C71.8636 8.24571 72.8643 10.6473 72.0638 12.8488C71.1632 15.0502 68.7616 16.0509 66.5601 15.2504L48.9485 8.24573C46.747 7.34514 45.7463 4.94354 46.5468 2.74208C47.4474 0.540623 49.849 -0.560132 52.0505 0.340466Z" fill="white"/>
<path d="M57.1539 22.0549L75.5662 17.5519C77.8677 17.0516 80.0691 18.3525 80.6695 20.654C81.1699 22.9555 79.869 25.157 77.5675 25.7574L59.1553 30.2604C56.8537 30.7607 54.6523 29.4598 54.0519 27.1583C53.5516 24.9568 54.9525 22.6553 57.1539 22.0549Z" fill="white"/>
<path d="M41.7437 50.5738L60.1559 46.0708C62.4574 45.5705 64.6589 46.8714 65.2593 49.1729C65.7596 51.4744 64.4588 53.6759 62.1572 54.2763L43.745 58.7793C41.4435 59.2796 39.242 57.9787 38.6416 55.6772C38.1413 53.4758 39.5422 51.1742 41.7437 50.5738Z" fill="white"/>
</svg>
