<svg width="137" height="130" viewBox="0 0 137 130" fill="none" xmlns="http://www.w3.org/2000/svg">
<path d="M27.8184 40.5406C29.5184 19.6406 47.0184 3.14062 68.4184 3.14062C90.9184 3.14062 109.118 21.3406 109.118 43.8406C109.118 58.1406 101.818 70.6406 90.7184 77.9406" stroke="white" stroke-width="5.5" stroke-linecap="round" stroke-linejoin="round"/>
<path d="M62.3184 122.041C43.6184 131.641 20.3184 125.341 9.1184 107.141C-2.7816 87.9406 3.2184 62.8406 22.4184 51.0406C34.9184 43.3406 49.9184 43.2406 62.1184 49.3406" stroke="white" stroke-width="5.5" stroke-linecap="round" stroke-linejoin="round"/>
<path d="M73.9184 58.3406C75.6184 60.1406 77.1184 62.1406 78.4184 64.3406C88.1184 80.1406 85.8184 99.8406 74.0184 112.941" stroke="white" stroke-width="5.5" stroke-linecap="round" stroke-linejoin="round"/>
<path d="M115.618 51.5406C133.018 63.0406 139.118 86.1406 129.118 104.841C118.418 124.641 93.7184 132.141 73.9184 121.441C61.3184 114.641 53.7184 102.141 52.6184 88.8406" stroke="white" stroke-width="5.5" stroke-linecap="round" stroke-linejoin="round"/>
<path d="M54.0184 74.1406C54.8184 71.4406 55.9184 68.8406 57.2184 66.3406C66.0184 49.9406 84.5184 42.0406 101.818 45.8406" stroke="white" stroke-width="5.5" stroke-linecap="round" stroke-linejoin="round"/>
<path d="M77.1184 83.7406C74.3184 84.3406 71.4184 84.6406 68.5184 84.6406C50.0184 84.6406 34.4184 72.3406 29.4184 55.3406" stroke="white" stroke-width="5.5" stroke-linecap="round" stroke-linejoin="round"/>
</svg>
