<svg width="125" height="126" viewBox="0 0 125 126" fill="none" xmlns="http://www.w3.org/2000/svg">
<path d="M63.4716 0.832764H61.6211V46.5397H63.4716V0.832764Z" fill="white"/>
<path d="M63.4716 80.0334H61.6211V125.74H63.4716V80.0334Z" fill="white"/>
<path d="M45.7994 62.3613H0.0926514V64.2117H45.7994V62.3613Z" fill="white"/>
<path d="M125 62.3613H79.2933V64.2117H125V62.3613Z" fill="white"/>
<path d="M62.5464 106.125C38.8603 106.125 19.6152 86.8802 19.6152 63.194C19.6152 39.5078 38.8603 20.2628 62.5464 20.2628C86.2326 20.2628 105.477 39.5078 105.477 63.194C105.477 86.8802 86.1401 106.125 62.5464 106.125ZM62.5464 22.2058C39.878 22.2058 21.4657 40.6181 21.4657 63.2865C21.4657 85.9549 39.878 104.367 62.5464 104.367C85.2148 104.367 103.627 85.9549 103.627 63.2865C103.627 40.6181 85.1223 22.2058 62.5464 22.2058Z" fill="white"/>
<path d="M63.4716 62.3612H79.2931C78.8305 53.849 71.9838 47.0023 63.4716 46.5397V62.3612Z" fill="white"/>
<path d="M61.6211 62.3612V46.5397C53.1089 47.0023 46.2621 53.849 45.7994 62.3612H61.6211Z" fill="white"/>
<path d="M61.6211 64.2117H45.7994C46.2621 72.7239 53.1089 79.5707 61.6211 80.0334V64.2117Z" fill="white"/>
<path d="M63.4716 64.2117V80.0334C71.9838 79.5707 78.8305 72.7239 79.2931 64.2117H63.4716Z" fill="white"/>
</svg>
