<svg width="126" height="126" viewBox="0 0 126 126" fill="none" xmlns="http://www.w3.org/2000/svg">
<path d="M99.7315 67.1232V85.5055L87.6914 78.557V74.0717L79.3917 69.2831L75.5131 67.0405V53.1434L79.3181 55.3401L91.432 62.3346L99.7315 67.1232Z" stroke="white" stroke-width="4.37362" stroke-linecap="round" stroke-linejoin="round"/>
<path d="M51.3679 53.0974V67.0772L47.5533 69.2831L39.4101 73.9798V78.3824L27.3052 85.3768V66.9945L35.4487 62.2886L47.48 55.3401L51.3679 53.0974Z" stroke="white" stroke-width="4.37362" stroke-linecap="round" stroke-linejoin="round"/>
<path d="M123.794 53.2261L107.875 62.4173L99.7315 67.1232L91.432 62.3346L79.3181 55.3401L75.5131 53.1434L83.6655 48.4375L87.4708 46.2408L99.5753 39.2463L123.794 53.2261Z" stroke="white" stroke-width="4.37362" stroke-linecap="round" stroke-linejoin="round"/>
<path d="M87.4716 32.2519L71.5524 41.4431L63.3997 46.1489L55.1002 41.3603L39.181 32.1692L63.2527 18.2721L87.4716 32.2519Z" stroke="white" stroke-width="4.37362" stroke-linecap="round" stroke-linejoin="round"/>
<path d="M51.3682 53.0975L47.4804 55.3401L35.4491 62.2886L27.3056 66.9945L19.0062 62.1967L3.08698 53.0056L27.1494 39.1177L39.1807 46.0662L43.0686 48.3089L51.3682 53.0975Z" stroke="white" stroke-width="4.37362" stroke-linecap="round" stroke-linejoin="round"/>
<path d="M123.794 53.2261V71.6085L99.7317 85.5055V67.1232L107.875 62.4173L123.794 53.2261Z" stroke="white" stroke-width="4.37362" stroke-linecap="round" stroke-linejoin="round"/>
<path d="M87.6921 74.0717V92.454L63.6294 106.351V87.9687L71.7729 83.2628L83.8134 76.3143L87.6921 74.0717Z" stroke="white" stroke-width="4.37362" stroke-linecap="round" stroke-linejoin="round"/>
<path d="M87.6921 74.0717L83.8136 76.3143L71.773 83.2629L63.6295 87.9688L55.3301 83.171L43.2251 76.1857L39.4109 73.9798L47.5542 69.2831L51.3686 67.0772L59.5947 62.3346L63.3998 60.1379L63.4733 60.0919L67.2786 62.2886L75.5138 67.0404L79.3925 69.2831L87.6921 74.0717Z" stroke="white" stroke-width="4.37362" stroke-linecap="round" stroke-linejoin="round"/>
<path d="M63.6295 87.9687V106.351L39.4109 92.3621V73.9797L43.2251 76.1856L55.3301 83.1709L63.6295 87.9687Z" stroke="white" stroke-width="4.37362" stroke-linecap="round" stroke-linejoin="round"/>
<path d="M27.3056 66.9945V85.3768L3.08698 71.3878V53.0055L19.0062 62.1967L27.3056 66.9945Z" stroke="white" stroke-width="4.37362" stroke-linecap="round" stroke-linejoin="round"/>
<path d="M87.4715 32.2518V46.2408L83.6662 48.4375L75.5138 53.1434V57.5367L67.2785 62.2886L63.4732 60.0919L63.3996 60.1378V46.1489L71.5523 41.443L87.4715 32.2518Z" stroke="white" stroke-width="4.37362" stroke-linecap="round" stroke-linejoin="round"/>
<path d="M63.3997 46.1489V60.1379L59.5946 62.3345L51.3685 57.5827V53.0974L43.0689 48.3088L39.181 46.0662V32.1691L55.1002 41.3603L63.3997 46.1489Z" stroke="white" stroke-width="4.37362" stroke-linecap="round" stroke-linejoin="round"/>
</svg>
