<svg width="137" height="126" viewBox="0 0 137 126" fill="none" xmlns="http://www.w3.org/2000/svg">
<path d="M127.995 78.0691C122.558 72.6322 115.309 69.9137 108.16 70.0144C103.932 70.0144 100.106 67.7993 97.9914 64.1747L91.9503 53.8042C89.8359 50.1795 89.8359 45.6487 91.9503 42.0241C98.1927 31.4522 96.7831 17.5577 87.6208 8.39537C76.8475 -2.37788 59.3284 -2.37788 48.4544 8.39537C39.2921 17.5577 37.8826 31.3515 44.1251 42.0241C46.2395 45.6487 46.2395 50.1795 44.1251 53.8042L38.084 64.1747C35.9696 67.7993 32.1436 70.1151 27.9149 70.0144C20.7663 69.9137 13.5169 72.6322 8.07994 78.0691C-2.69331 88.8424 -2.69331 106.362 8.07994 117.235C18.8532 128.009 36.3723 128.009 47.2463 117.235C49.0586 115.423 50.5689 113.409 51.7771 111.295C53.8915 107.67 57.7175 105.355 61.9462 105.355H73.9277C78.1565 105.355 82.0831 107.57 84.0968 111.295C85.305 113.409 86.8153 115.423 88.6276 117.235C99.4009 128.009 116.92 128.009 127.794 117.235C138.769 106.362 138.769 88.8424 127.995 78.0691ZM51.6764 71.726L57.7175 61.3555C59.8319 57.6302 63.7585 55.5158 68.088 55.5158C68.1886 55.5158 68.2894 55.5158 68.3901 55.5158C72.6188 55.5158 76.5456 57.7309 78.7606 61.3555L84.8017 71.726C86.9161 75.3507 86.916 79.8815 84.7009 83.5061C84.6002 83.6068 84.6003 83.7075 84.6003 83.8082C82.4859 87.5335 78.5592 89.8493 74.3305 89.8493H62.349C58.1202 89.8493 54.1936 87.5335 52.0792 83.8082C52.0792 83.7075 51.9784 83.6068 51.9784 83.5061C49.562 79.9822 49.5621 75.4514 51.6764 71.726Z" fill="white"/>
</svg>
