<svg width="125" height="119" viewBox="0 0 125 119" fill="none" xmlns="http://www.w3.org/2000/svg">
<path d="M67.7778 102.918H84.6296L71.0185 93.011L76.2037 76.9925L62.5925 86.8999L48.8889 76.9925L54.074 93.011L40.463 102.918H57.3148L62.5925 118.937L67.7778 102.918Z" fill="white"/>
<path d="M108.148 73.5665H125L111.389 63.6591L116.574 47.6406L102.963 57.548L89.3519 47.6406L94.537 63.6591L80.9259 73.5665H97.7778L102.963 89.5851L108.148 73.5665Z" fill="white"/>
<path d="M92.7778 26.0666H109.63L95.9259 16.1591L101.204 0.140625L87.5 10.048L73.8889 0.140625L79.074 16.1591L65.463 26.0666H82.3148L87.5 42.0851L92.7778 26.0666Z" fill="white"/>
<path d="M42.7778 26.0666H59.6296L46.0185 16.1591L51.2037 0.140625L37.5925 10.048L23.8889 0.140625L29.1666 16.1591L15.463 26.0666H32.3148L37.5925 42.0851L42.7778 26.0666Z" fill="white"/>
<path d="M27.3148 73.5665H44.1667L30.5556 63.6591L35.7407 47.6406L22.1296 57.548L8.51853 47.6406L13.7037 63.6591L0 73.5665H16.9444L22.1296 89.5851L27.3148 73.5665Z" fill="white"/>
</svg>
