<svg width="125" height="138" viewBox="0 0 125 138" fill="none" xmlns="http://www.w3.org/2000/svg">
<path d="M62.4501 44.9046C74.701 44.9046 84.6323 34.9732 84.6323 22.7223C84.6323 10.4714 74.701 0.540039 62.4501 0.540039C50.1991 0.540039 40.2678 10.4714 40.2678 22.7223C40.2678 34.9732 50.1991 44.9046 62.4501 44.9046Z" fill="white"/>
<path d="M62.4501 137.93C74.701 137.93 84.6323 127.999 84.6323 115.748C84.6323 103.497 74.701 93.5656 62.4501 93.5656C50.1991 93.5656 40.2678 103.497 40.2678 115.748C40.2678 127.999 50.1991 137.93 62.4501 137.93Z" fill="white"/>
<path d="M65.9473 22.7223H58.9529V115.748H65.9473V22.7223Z" fill="white"/>
<path d="M100.995 42.8874L20.4344 89.4002L23.9317 95.4573L104.492 48.9445L100.995 42.8874Z" fill="white"/>
<path d="M23.9368 43.0065L20.4396 49.0636L101 95.5764L104.497 89.5193L23.9368 43.0065Z" fill="white"/>
<path d="M22.1822 114.649C34.4332 114.649 44.3645 104.717 44.3645 92.4665C44.3645 80.2156 34.4332 70.2842 22.1822 70.2842C9.93132 70.2842 0 80.2156 0 92.4665C0 104.717 9.93132 114.649 22.1822 114.649Z" fill="white"/>
<path d="M102.818 68.186C115.069 68.186 125 58.2546 125 46.0037C125 33.7528 115.069 23.8214 102.818 23.8214C90.5668 23.8214 80.6355 33.7528 80.6355 46.0037C80.6355 58.2546 90.5668 68.186 102.818 68.186Z" fill="white"/>
<path d="M102.818 114.649C115.069 114.649 125 104.717 125 92.4665C125 80.2156 115.069 70.2842 102.818 70.2842C90.5668 70.2842 80.6355 80.2156 80.6355 92.4665C80.6355 104.717 90.5668 114.649 102.818 114.649Z" fill="white"/>
<path d="M22.1822 68.186C34.4332 68.186 44.3645 58.2546 44.3645 46.0037C44.3645 33.7528 34.4332 23.8214 22.1822 23.8214C9.93132 23.8214 0 33.7528 0 46.0037C0 58.2546 9.93132 68.186 22.1822 68.186Z" fill="white"/>
</svg>
