<svg width="125" height="113" viewBox="0 0 125 113" fill="none" xmlns="http://www.w3.org/2000/svg">
<path d="M94.6883 112.097H30.3561C22.4521 112.097 16.049 105.694 16.049 97.7899C16.049 89.8859 22.4521 83.4827 30.3561 83.4827H94.6883C102.592 83.4827 108.995 89.8859 108.995 97.7899C108.995 105.694 102.592 112.097 94.6883 112.097Z" fill="white"/>
<path d="M110.796 84.1831C105.894 84.1831 101.091 81.5818 98.3901 77.0795L66.274 21.4517C62.3721 14.6483 64.6732 5.84392 71.4766 1.94197C78.28 -1.95998 87.0844 0.341168 90.9863 7.14457L123.103 62.7724C127.004 69.5758 124.703 78.3802 117.9 82.2821C115.599 83.5828 113.198 84.1831 110.796 84.1831Z" fill="white"/>
<path d="M14.2481 84.1831C11.8469 84.1831 9.34568 83.5828 7.14458 82.2821C0.341179 78.3802 -2.06003 69.5758 1.94197 62.7724L34.058 7.14457C37.9599 0.34117 46.7644 -2.06003 53.5678 1.94197C60.3712 5.84392 62.7724 14.6483 58.7704 21.4517L26.6543 77.0795C24.053 81.5818 19.2506 84.1831 14.2481 84.1831Z" fill="white"/>
</svg>
