<svg width="125" height="126" viewBox="0 0 125 126" fill="none" xmlns="http://www.w3.org/2000/svg">
<path d="M40.4999 29.6402V0.740234H31.5V29.6402L36 34.1402L40.4999 29.6402Z" fill="white"/>
<path d="M43.2 41.2402H81.9L86.4 36.7402L81.9 32.2402H43.2L38.7 36.7402L43.2 41.2402Z" fill="white"/>
<path d="M93.6001 29.6402V0.740234H84.6001V29.6402L89.1001 34.1402L93.6001 29.6402Z" fill="white"/>
<path d="M28.9 32.2402H0V41.2402H28.9L33.4 36.7402L28.9 32.2402Z" fill="white"/>
<path d="M31.5 96.9402V125.74H40.4999V96.9402L36 92.4402L31.5 96.9402Z" fill="white"/>
<path d="M96.2 94.3402H125V85.3402H96.2L91.7 89.8402L96.2 94.3402Z" fill="white"/>
<path d="M84.6001 43.9402V82.6402L89.1001 87.1402L93.6001 82.6402V43.9402L89.1001 39.4402L84.6001 43.9402Z" fill="white"/>
<path d="M125 32.2402H96.2L91.7 36.7402L96.2 41.2402H125V32.2402Z" fill="white"/>
<path d="M28.9 85.3402H0V94.3402H28.9L33.4 89.8402L28.9 85.3402Z" fill="white"/>
<path d="M40.4999 82.6402V43.9402L36 39.4402L31.5 43.9402V82.6402L36 87.1402L40.4999 82.6402Z" fill="white"/>
<path d="M81.9 85.3402H43.2L38.7 89.8402L43.2 94.3402H81.9L86.4 89.8402L81.9 85.3402Z" fill="white"/>
<path d="M84.6001 96.9402V125.74H93.6001V96.9402L89.1001 92.4402L84.6001 96.9402Z" fill="white"/>
</svg>
