<svg width="125" height="126" viewBox="0 0 125 126" fill="none" xmlns="http://www.w3.org/2000/svg">
<path d="M52.0529 0.84054C25.1603 4.6395 3.86614 25.8337 0.167158 52.7263C-0.432677 57.2251 3.06636 61.224 7.6651 61.224H53.1526C57.3515 61.224 60.6506 57.8249 60.6506 53.7261V8.23854C60.5506 3.73977 56.5517 0.240705 52.0529 0.84054Z" fill="white"/>
<path d="M0.0671027 73.7206C3.86606 100.613 25.0603 121.907 51.9529 125.606C56.4517 126.206 60.4506 122.707 60.4506 118.108V72.6209C60.4506 68.422 57.0515 65.1229 52.9526 65.1229H7.4651C2.96633 65.2229 -0.532733 69.2218 0.0671027 73.7206Z" fill="white"/>
<path d="M72.9472 125.706C99.8398 121.907 121.134 100.713 124.833 73.8205C125.433 69.3218 121.934 65.3229 117.335 65.3229H71.8475C67.6486 65.3229 64.3495 68.7219 64.3495 72.8208V118.308C64.4495 122.807 68.4485 126.306 72.9472 125.706Z" fill="white"/>
<path d="M64.4495 8.33855V53.8261C64.4495 58.0249 67.8485 61.324 71.9474 61.324H117.435C121.934 61.324 125.533 57.3251 124.933 52.8263C121.134 25.9337 99.9397 4.6396 73.0471 0.940616C68.4483 0.240808 64.4495 3.73981 64.4495 8.33855Z" fill="white"/>
</svg>
