<svg width="125" height="129" viewBox="0 0 125 129" fill="none" xmlns="http://www.w3.org/2000/svg">
<path d="M61 128.34C60.2 128.34 59.5 127.64 59.5 126.84C59.5 126.04 60.2 125.34 61 125.34C94.7 125.34 122.1 97.9401 122.1 64.2401C122.1 30.5401 94.7 3.14001 61 3.14001C29 3.14001 2.90002 29.2401 2.90002 61.2401C2.90002 93.2401 29 119.34 61 119.34C91.4 119.34 116.1 94.6401 116.1 64.2401C116.1 33.8401 91.4 9.14001 61 9.14001C32.3 9.14001 8.90002 32.54 8.90002 61.34C8.90002 90.14 32.3 113.54 61 113.54C88.1 113.54 110.1 91.44 110.1 64.34C110.1 37.24 88.1 15.14 61 15.14C35.5 15.14 14.8 35.84 14.8 61.34C14.8 86.84 35.5 107.54 61 107.54C84.8 107.54 104.2 88.14 104.2 64.34C104.2 40.54 84.8 21.14 61 21.14C38.8 21.14 20.8 39.24 20.8 61.34C20.8 83.54 38.8 101.54 61 101.54C81.5 101.54 98.2 84.8401 98.2 64.2401C98.2 43.6401 81.5 26.9401 61 26.9401C42.1 26.9401 26.7 42.3401 26.7 61.2401C26.7 80.1401 42.1 95.54 61 95.54C78.3 95.54 92.3 81.5401 92.3 64.2401C92.3 46.9401 78.3 32.9401 61 32.9401C45.4 32.9401 32.7 45.6401 32.7 61.2401C32.7 76.8401 45.4 89.54 61 89.54C75 89.54 86.3 78.1401 86.3 64.2401C86.3 50.3401 74.9 38.9401 61 38.9401C48.7 38.9401 38.6 48.94 38.6 61.34C38.6 73.64 48.6 83.7401 61 83.7401C71.7 83.7401 80.4 75.04 80.4 64.34C80.4 53.64 71.7 44.9401 61 44.9401C52 44.9401 44.6 52.34 44.6 61.34C44.6 70.34 52 77.7401 61 77.7401C68.4 77.7401 74.4 71.74 74.4 64.34C74.4 56.94 68.4 50.9401 61 50.9401C55.2 50.9401 50.6 55.6401 50.6 61.4401C50.6 67.2401 55.3 71.9401 61 71.9401C65.1 71.9401 68.5 68.5401 68.5 64.4401C68.5 60.3401 65.2 56.9401 61 56.9401C58.5 56.9401 56.5 58.9401 56.5 61.4401C56.5 63.9401 58.5 65.9401 61 65.9401C61.8 65.9401 62.5 65.2401 62.5 64.4401C62.5 63.6401 61.8 62.9401 61 62.9401C60.2 62.9401 59.5 62.2401 59.5 61.4401C59.5 60.6401 60.2 59.9401 61 59.9401C63.4 59.9401 65.4 61.94 65.4 64.34C65.4 66.74 63.4 68.7401 61 68.7401C56.9 68.7401 53.6 65.44 53.6 61.34C53.6 57.24 56.9 53.9401 61 53.9401C66.7 53.9401 71.4 58.64 71.4 64.34C71.4 70.04 66.7 74.7401 61 74.7401C53.6 74.7401 47.6 68.74 47.6 61.34C47.6 53.94 53.6 47.9401 61 47.9401C70 47.9401 77.4 55.24 77.4 64.34C77.4 73.34 70.1 80.7401 61 80.7401C50.3 80.7401 41.7 72.0401 41.7 61.4401C41.7 50.7401 50.4 42.14 61 42.14C73.3 42.14 83.3 52.1401 83.3 64.4401C83.3 76.7401 73.3 86.7401 61 86.7401C47.1 86.7401 35.7 75.4401 35.7 61.4401C35.7 47.5401 47 36.14 61 36.14C76.6 36.14 89.3 48.8401 89.3 64.4401C89.3 80.0401 76.5 92.54 61 92.54C43.8 92.54 29.8 78.5401 29.8 61.2401C29.8 43.9401 43.8 29.9401 61 29.9401C79.9 29.9401 95.2 45.34 95.2 64.14C95.2 82.94 79.8 98.54 61 98.54C40.5 98.54 23.8 81.84 23.8 61.34C23.8 40.84 40.5 24.14 61 24.14C83.1 24.14 101.2 42.14 101.2 64.34C101.2 86.54 83.2 104.54 61 104.54C37.2 104.54 17.9 85.14 17.9 61.34C17.9 37.54 37.3 18.14 61 18.14C86.4 18.14 107.1 38.84 107.1 64.34C107.1 89.84 86.4 110.54 61 110.54C33.9 110.54 11.9 88.5401 11.9 61.4401C11.9 34.3401 33.9 12.34 61 12.34C89.7 12.34 113.1 35.7401 113.1 64.4401C113.1 93.1401 89.7 116.54 61 116.54C30.6 116.54 5.90002 91.8401 5.90002 61.4401C5.90002 31.0401 30.6 6.34003 61 6.34003C93 6.34003 119 32.3401 119 64.4401C119 96.5401 93 122.54 61 122.54C27.4 122.54 0 95.14 0 61.54C0 27.84 27.4 0.540039 61 0.540039C96.3 0.540039 125 29.24 125 64.54C125 99.84 96.2 128.34 61 128.34Z" fill="white"/>
</svg>
