<svg width="125" height="125" viewBox="0 0 125 125" fill="none" xmlns="http://www.w3.org/2000/svg">
<path d="M80.0438 5.7384C66.2487 11.6363 56.5521 25.4314 56.5521 41.4257C56.5521 49.123 58.7513 56.2204 62.55 62.2183C62.45 61.3186 62.45 60.4189 62.45 59.5192C62.45 38.0269 79.8438 20.7331 101.236 20.7331C104.535 20.7331 107.634 21.1329 110.633 21.9326C103.735 12.3361 92.6393 6.0383 80.0438 5.7384Z" fill="white"/>
<path d="M22.2644 18.8337C20.465 33.8284 27.5625 49.023 41.4576 57.1201C48.0552 60.9187 55.3526 62.6181 62.55 62.3183C61.7503 61.9184 60.9506 61.5186 60.1509 61.0187C41.5575 50.3225 35.2598 26.531 45.956 7.93766C47.5554 5.13866 49.5547 2.53955 51.6539 0.340332C39.8581 1.5399 28.862 8.03759 22.2644 18.8337Z" fill="white"/>
<path d="M4.77056 75.4136C16.8663 84.4104 33.5603 85.9099 47.4554 77.9128C54.053 74.1141 59.1512 68.616 62.45 62.3183C61.7503 62.8181 60.9505 63.3179 60.1508 63.7178C41.5574 74.414 17.8659 68.1162 7.06974 49.5228C5.47031 46.7238 4.17078 43.7249 3.37107 40.8259C-1.42723 51.5221 -1.2273 64.3176 4.77056 75.4136Z" fill="white"/>
<path d="M44.9563 118.798C58.7514 112.9 68.4479 99.1051 68.4479 83.1108C68.4479 75.4136 66.2487 68.3161 62.4501 62.3182C62.55 63.2179 62.55 64.1176 62.55 65.0173C62.55 86.5096 45.1562 103.803 23.7638 103.803C20.465 103.803 17.3661 103.404 14.3672 102.604C21.2647 112.2 32.3608 118.498 44.9563 118.798Z" fill="white"/>
<path d="M102.736 105.703C104.535 90.7082 97.4376 75.5136 83.5425 67.4165C76.9449 63.6178 69.6475 61.9184 62.45 62.2183C63.2498 62.6182 64.0495 63.018 64.8492 63.5179C83.4426 74.214 89.7403 98.0055 79.0441 116.599C77.4447 119.398 75.4454 121.997 73.3462 124.196C85.142 122.997 96.138 116.499 102.736 105.703Z" fill="white"/>
<path d="M120.229 49.1229C108.134 40.1261 91.4397 38.6267 77.5446 46.6238C70.947 50.4225 65.8488 55.9205 62.55 62.2183C63.2497 61.7185 64.0495 61.2186 64.8492 60.8188C83.4426 50.1226 107.134 56.4204 117.93 75.0137C119.53 77.8127 120.829 80.8117 121.629 83.7106C126.427 73.0145 126.227 60.219 120.229 49.1229Z" fill="white"/>
</svg>
