<svg width="125" height="126" viewBox="0 0 125 126" fill="none" xmlns="http://www.w3.org/2000/svg">
<path d="M75.4398 0.340332H49.5606C45.1641 0.340332 41.6669 3.83756 41.6669 8.23403V34.1133C41.6669 38.5098 45.1641 42.007 49.5606 42.007H75.4398C79.8362 42.007 83.3335 38.5098 83.3335 34.1133V8.23403C83.3335 3.83756 79.7363 0.340332 75.4398 0.340332Z" fill="white"/>
<path d="M49.5606 125.24H75.4398C79.8362 125.24 83.3335 121.743 83.3335 117.347V91.4674C83.3335 87.0709 79.8362 83.5737 75.4398 83.5737H49.5606C45.1641 83.5737 41.6669 87.0709 41.6669 91.4674V117.347C41.6669 121.643 45.264 125.24 49.5606 125.24Z" fill="white"/>
<path d="M83.3331 49.8007V75.68C83.3331 80.0765 86.8304 83.5737 91.2268 83.5737H117.106C121.503 83.5737 125 80.0765 125 75.68V49.8007C125 45.4042 121.503 41.907 117.106 41.907H91.2268C86.8304 41.907 83.3331 45.5042 83.3331 49.8007Z" fill="white"/>
<path d="M0 49.8007V75.68C0 80.0765 3.49722 83.5737 7.8937 83.5737H33.773C38.1695 83.5737 41.6667 80.0765 41.6667 75.68V49.8007C41.6667 45.4042 38.1695 41.907 33.773 41.907H7.8937C3.59714 41.907 0 45.5042 0 49.8007Z" fill="white"/>
</svg>
